<mxfile host="app.diagrams.net" agent="Mozilla/5.0 (X11; Linux x86_64; rv:128.0) Gecko/20100101 Firefox/128.0" version="26.0.4">
  <diagram name="Page-1" id="-Mqs1Dr5-py3yci1nZ4G">
    <mxGraphModel dx="1889" dy="1345" grid="1" gridSize="10" guides="1" tooltips="1" connect="1" arrows="1" fold="1" page="1" pageScale="1" pageWidth="827" pageHeight="1169" math="0" shadow="0">
      <root>
        <mxCell id="0" />
        <mxCell id="1" parent="0" />
        <mxCell id="8TRVSNnAd9o4I1YfOJwp-17" value="" style="rounded=1;whiteSpace=wrap;html=1;strokeWidth=2;dashed=1;dashPattern=1 1;fillColor=#dae8fc;strokeColor=#6c8ebf;" vertex="1" parent="1">
          <mxGeometry x="150" y="620" width="150" height="200" as="geometry" />
        </mxCell>
        <mxCell id="8TRVSNnAd9o4I1YfOJwp-1" value="&lt;font style=&quot;font-size: 16px;&quot;&gt;&lt;b&gt;h&lt;sub&gt;1&lt;/sub&gt;&lt;/b&gt;&lt;/font&gt;" style="rounded=0;whiteSpace=wrap;html=1;strokeWidth=2;fillColor=#fff2cc;strokeColor=#d6b656;" vertex="1" parent="1">
          <mxGeometry x="200" y="640" width="40" height="40" as="geometry" />
        </mxCell>
        <mxCell id="8TRVSNnAd9o4I1YfOJwp-2" style="edgeStyle=orthogonalEdgeStyle;rounded=0;orthogonalLoop=1;jettySize=auto;html=1;strokeWidth=2;fillColor=#fff2cc;strokeColor=#d6b656;entryX=1;entryY=0.5;entryDx=0;entryDy=0;" edge="1" parent="1" target="8TRVSNnAd9o4I1YfOJwp-50">
          <mxGeometry relative="1" as="geometry">
            <mxPoint x="220" y="840" as="sourcePoint" />
            <mxPoint x="230" y="680" as="targetPoint" />
            <Array as="points">
              <mxPoint x="240" y="840" />
              <mxPoint x="240" y="725" />
            </Array>
          </mxGeometry>
        </mxCell>
        <mxCell id="8TRVSNnAd9o4I1YfOJwp-13" style="edgeStyle=orthogonalEdgeStyle;rounded=0;orthogonalLoop=1;jettySize=auto;html=1;fillColor=#d5e8d4;strokeColor=#82b366;strokeWidth=2;endArrow=none;endFill=0;" edge="1" parent="1" source="8TRVSNnAd9o4I1YfOJwp-3">
          <mxGeometry relative="1" as="geometry">
            <mxPoint x="170" y="850" as="targetPoint" />
            <Array as="points">
              <mxPoint x="220" y="850" />
            </Array>
          </mxGeometry>
        </mxCell>
        <mxCell id="8TRVSNnAd9o4I1YfOJwp-14" style="rounded=1;orthogonalLoop=1;jettySize=auto;html=1;strokeWidth=2;fillColor=#d5e8d4;strokeColor=#82b366;entryX=0.5;entryY=1;entryDx=0;entryDy=0;exitX=0.079;exitY=0.1;exitDx=0;exitDy=0;exitPerimeter=0;curved=0;" edge="1" parent="1" source="8TRVSNnAd9o4I1YfOJwp-65" target="8TRVSNnAd9o4I1YfOJwp-50">
          <mxGeometry relative="1" as="geometry">
            <mxPoint x="210" y="680" as="targetPoint" />
          </mxGeometry>
        </mxCell>
        <mxCell id="8TRVSNnAd9o4I1YfOJwp-3" value="&lt;font style=&quot;font-size: 16px;&quot;&gt;&lt;b&gt;x&lt;sub&gt;1&lt;/sub&gt;&lt;/b&gt;&lt;/font&gt;" style="rounded=0;whiteSpace=wrap;html=1;strokeWidth=2;fillColor=#d5e8d4;strokeColor=#82b366;" vertex="1" parent="1">
          <mxGeometry x="200" y="880" width="40" height="40" as="geometry" />
        </mxCell>
        <mxCell id="8TRVSNnAd9o4I1YfOJwp-4" style="edgeStyle=orthogonalEdgeStyle;rounded=0;orthogonalLoop=1;jettySize=auto;html=1;entryX=0.25;entryY=1;entryDx=0;entryDy=0;strokeWidth=2;fillColor=#fff2cc;strokeColor=#d6b656;" edge="1" parent="1" source="8TRVSNnAd9o4I1YfOJwp-5" target="8TRVSNnAd9o4I1YfOJwp-11">
          <mxGeometry relative="1" as="geometry">
            <Array as="points">
              <mxPoint x="120" y="660" />
              <mxPoint x="120" y="840" />
              <mxPoint x="260" y="840" />
            </Array>
          </mxGeometry>
        </mxCell>
        <mxCell id="8TRVSNnAd9o4I1YfOJwp-12" style="edgeStyle=orthogonalEdgeStyle;rounded=0;orthogonalLoop=1;jettySize=auto;html=1;entryX=0.75;entryY=1;entryDx=0;entryDy=0;strokeWidth=2;fillColor=#fff2cc;strokeColor=#d6b656;" edge="1" parent="1" source="8TRVSNnAd9o4I1YfOJwp-5" target="8TRVSNnAd9o4I1YfOJwp-10">
          <mxGeometry relative="1" as="geometry">
            <Array as="points">
              <mxPoint x="120" y="660" />
              <mxPoint x="120" y="840" />
              <mxPoint x="190" y="840" />
            </Array>
          </mxGeometry>
        </mxCell>
        <mxCell id="8TRVSNnAd9o4I1YfOJwp-5" value="&lt;font style=&quot;font-size: 16px;&quot;&gt;&lt;b&gt;h&lt;sub&gt;0&lt;/sub&gt;&lt;/b&gt;&lt;/font&gt;" style="rounded=0;whiteSpace=wrap;html=1;strokeWidth=2;fillColor=#fff2cc;strokeColor=#d6b656;" vertex="1" parent="1">
          <mxGeometry y="640" width="40" height="40" as="geometry" />
        </mxCell>
        <mxCell id="8TRVSNnAd9o4I1YfOJwp-6" value="" style="edgeStyle=orthogonalEdgeStyle;rounded=0;orthogonalLoop=1;jettySize=auto;html=1;entryX=0.75;entryY=1;entryDx=0;entryDy=0;strokeWidth=2;fillColor=#d5e8d4;strokeColor=#82b366;" edge="1" parent="1" source="8TRVSNnAd9o4I1YfOJwp-3" target="8TRVSNnAd9o4I1YfOJwp-11">
          <mxGeometry relative="1" as="geometry">
            <mxPoint x="220" y="800" as="sourcePoint" />
            <mxPoint x="220" y="750" as="targetPoint" />
            <Array as="points">
              <mxPoint x="220" y="850" />
              <mxPoint x="280" y="850" />
              <mxPoint x="280" y="800" />
            </Array>
          </mxGeometry>
        </mxCell>
        <mxCell id="8TRVSNnAd9o4I1YfOJwp-16" style="edgeStyle=orthogonalEdgeStyle;rounded=0;orthogonalLoop=1;jettySize=auto;html=1;entryX=0;entryY=0.5;entryDx=0;entryDy=0;strokeWidth=2;fillColor=#e1d5e7;strokeColor=#9673a6;exitX=0.5;exitY=0;exitDx=0;exitDy=0;entryPerimeter=0;" edge="1" parent="1" source="8TRVSNnAd9o4I1YfOJwp-10" target="8TRVSNnAd9o4I1YfOJwp-61">
          <mxGeometry relative="1" as="geometry">
            <mxPoint x="215.00000000000398" y="700" as="targetPoint" />
          </mxGeometry>
        </mxCell>
        <mxCell id="8TRVSNnAd9o4I1YfOJwp-10" value="&lt;font style=&quot;font-size: 16px;&quot;&gt;&lt;b&gt;z&lt;sub&gt;1&lt;/sub&gt;&lt;/b&gt;&lt;/font&gt;" style="rounded=0;whiteSpace=wrap;html=1;strokeWidth=2;fillColor=#e1d5e7;strokeColor=#9673a6;" vertex="1" parent="1">
          <mxGeometry x="160" y="760" width="40" height="40" as="geometry" />
        </mxCell>
        <mxCell id="8TRVSNnAd9o4I1YfOJwp-15" style="edgeStyle=orthogonalEdgeStyle;rounded=0;orthogonalLoop=1;jettySize=auto;html=1;strokeWidth=2;fillColor=#f8cecc;strokeColor=#b85450;exitX=0.5;exitY=0;exitDx=0;exitDy=0;entryX=1;entryY=0.5;entryDx=0;entryDy=0;" edge="1" parent="1" source="8TRVSNnAd9o4I1YfOJwp-11">
          <mxGeometry relative="1" as="geometry">
            <mxPoint x="245" y="745" as="targetPoint" />
            <Array as="points">
              <mxPoint x="270" y="745" />
            </Array>
          </mxGeometry>
        </mxCell>
        <mxCell id="8TRVSNnAd9o4I1YfOJwp-11" value="&lt;font style=&quot;font-size: 16px;&quot;&gt;&lt;b&gt;r&lt;sub&gt;1&lt;/sub&gt;&lt;/b&gt;&lt;/font&gt;" style="rounded=0;whiteSpace=wrap;html=1;strokeWidth=2;fillColor=#f8cecc;strokeColor=#b85450;" vertex="1" parent="1">
          <mxGeometry x="250" y="760" width="40" height="40" as="geometry" />
        </mxCell>
        <mxCell id="8TRVSNnAd9o4I1YfOJwp-18" value="&lt;font style=&quot;color: light-dark(rgb(26, 95, 180), rgb(237, 237, 237)); font-size: 9px;&quot;&gt;GRU Cell&lt;/font&gt;" style="text;html=1;align=center;verticalAlign=middle;whiteSpace=wrap;rounded=0;" vertex="1" parent="1">
          <mxGeometry x="195" y="600" width="50" height="20" as="geometry" />
        </mxCell>
        <mxCell id="8TRVSNnAd9o4I1YfOJwp-55" style="rounded=0;orthogonalLoop=1;jettySize=auto;html=1;entryX=1;entryY=0.5;entryDx=0;entryDy=0;strokeWidth=2;fillColor=#f5f5f5;strokeColor=#666666;" edge="1" parent="1" source="8TRVSNnAd9o4I1YfOJwp-50">
          <mxGeometry relative="1" as="geometry">
            <mxPoint x="220.00000000000006" y="705" as="targetPoint" />
          </mxGeometry>
        </mxCell>
        <mxCell id="8TRVSNnAd9o4I1YfOJwp-50" value="" style="ellipse;whiteSpace=wrap;html=1;aspect=fixed;strokeWidth=2;fillColor=#f5f5f5;fontColor=#333333;strokeColor=#666666;" vertex="1" parent="1">
          <mxGeometry x="215" y="720" width="10" height="10" as="geometry" />
        </mxCell>
        <mxCell id="8TRVSNnAd9o4I1YfOJwp-56" style="rounded=0;orthogonalLoop=1;jettySize=auto;html=1;entryX=0.5;entryY=1;entryDx=0;entryDy=0;strokeWidth=2;fillColor=#f5f5f5;strokeColor=#666666;" edge="1" parent="1" target="8TRVSNnAd9o4I1YfOJwp-1">
          <mxGeometry relative="1" as="geometry">
            <mxPoint x="220.00000000000006" y="695" as="sourcePoint" />
          </mxGeometry>
        </mxCell>
        <mxCell id="8TRVSNnAd9o4I1YfOJwp-64" style="edgeStyle=orthogonalEdgeStyle;rounded=0;orthogonalLoop=1;jettySize=auto;html=1;entryX=1;entryY=0.5;entryDx=0;entryDy=0;entryPerimeter=0;strokeWidth=2;fillColor=#fff2cc;strokeColor=#d6b656;" edge="1" parent="1" source="8TRVSNnAd9o4I1YfOJwp-60" target="8TRVSNnAd9o4I1YfOJwp-61">
          <mxGeometry relative="1" as="geometry">
            <Array as="points">
              <mxPoint x="240" y="700" />
            </Array>
          </mxGeometry>
        </mxCell>
        <mxCell id="8TRVSNnAd9o4I1YfOJwp-60" value="" style="verticalLabelPosition=bottom;verticalAlign=top;html=1;shape=mxgraph.flowchart.or;strokeWidth=2;fillColor=#fff2cc;strokeColor=#d6b656;" vertex="1" parent="1">
          <mxGeometry x="235" y="740" width="10" height="10" as="geometry" />
        </mxCell>
        <mxCell id="8TRVSNnAd9o4I1YfOJwp-61" value="" style="verticalLabelPosition=bottom;verticalAlign=top;html=1;shape=mxgraph.flowchart.or;strokeWidth=2;fillColor=#f5f5f5;fontColor=#333333;strokeColor=#666666;" vertex="1" parent="1">
          <mxGeometry x="215" y="695" width="10" height="10" as="geometry" />
        </mxCell>
        <mxCell id="8TRVSNnAd9o4I1YfOJwp-65" value="" style="shape=requiredInterface;html=1;verticalLabelPosition=bottom;sketch=0;fillColor=#d5e8d4;strokeColor=#82b366;strokeWidth=2;" vertex="1" parent="1">
          <mxGeometry x="220" y="835" width="5" height="10" as="geometry" />
        </mxCell>
        <mxCell id="8TRVSNnAd9o4I1YfOJwp-66" style="edgeStyle=orthogonalEdgeStyle;rounded=1;orthogonalLoop=1;jettySize=auto;html=1;entryX=0.034;entryY=0.895;entryDx=0;entryDy=0;entryPerimeter=0;endArrow=none;endFill=0;fillColor=#d5e8d4;strokeColor=#82b366;strokeWidth=2;curved=0;" edge="1" parent="1" source="8TRVSNnAd9o4I1YfOJwp-3" target="8TRVSNnAd9o4I1YfOJwp-65">
          <mxGeometry relative="1" as="geometry" />
        </mxCell>
        <mxCell id="8TRVSNnAd9o4I1YfOJwp-69" value="&lt;b&gt;&lt;font style=&quot;font-size: 6px;&quot;&gt;f&lt;/font&gt;&lt;/b&gt;" style="text;html=1;align=center;verticalAlign=middle;whiteSpace=wrap;rounded=0;" vertex="1" parent="1">
          <mxGeometry x="210" y="717" width="20" height="10" as="geometry" />
        </mxCell>
        <mxCell id="8TRVSNnAd9o4I1YfOJwp-70" value="" style="shape=requiredInterface;html=1;verticalLabelPosition=bottom;sketch=0;fillColor=#d5e8d4;strokeColor=#82b366;strokeWidth=2;" vertex="1" parent="1">
          <mxGeometry x="170" y="835" width="5" height="10" as="geometry" />
        </mxCell>
        <mxCell id="8TRVSNnAd9o4I1YfOJwp-72" style="rounded=0;orthogonalLoop=1;jettySize=auto;html=1;entryX=0.25;entryY=1;entryDx=0;entryDy=0;strokeWidth=2;fillColor=#d5e8d4;strokeColor=#82b366;exitX=0;exitY=0.097;exitDx=0;exitDy=0;exitPerimeter=0;" edge="1" parent="1" source="8TRVSNnAd9o4I1YfOJwp-70" target="8TRVSNnAd9o4I1YfOJwp-10">
          <mxGeometry relative="1" as="geometry">
            <mxPoint x="170.32" y="835.84" as="sourcePoint" />
            <mxPoint x="170.00000000000006" y="800" as="targetPoint" />
          </mxGeometry>
        </mxCell>
        <mxCell id="8TRVSNnAd9o4I1YfOJwp-74" value="" style="endArrow=none;html=1;rounded=0;fillColor=#d5e8d4;strokeColor=#82b366;strokeWidth=2;exitX=0.005;exitY=0.902;exitDx=0;exitDy=0;exitPerimeter=0;" edge="1" parent="1" source="8TRVSNnAd9o4I1YfOJwp-70">
          <mxGeometry width="50" height="50" relative="1" as="geometry">
            <mxPoint x="170" y="850" as="sourcePoint" />
            <mxPoint x="170" y="851" as="targetPoint" />
          </mxGeometry>
        </mxCell>
        <mxCell id="8TRVSNnAd9o4I1YfOJwp-75" value="" style="endArrow=none;html=1;rounded=0;fillColor=#d5e8d4;strokeColor=#82b366;strokeWidth=2;" edge="1" parent="1">
          <mxGeometry width="50" height="50" relative="1" as="geometry">
            <mxPoint x="170" y="850" as="sourcePoint" />
            <mxPoint x="170" y="851" as="targetPoint" />
          </mxGeometry>
        </mxCell>
        <mxCell id="8TRVSNnAd9o4I1YfOJwp-76" value="" style="rounded=1;whiteSpace=wrap;html=1;strokeWidth=2;dashed=1;dashPattern=1 1;fillColor=#dae8fc;strokeColor=#6c8ebf;" vertex="1" parent="1">
          <mxGeometry x="350" y="620" width="150" height="200" as="geometry" />
        </mxCell>
        <mxCell id="8TRVSNnAd9o4I1YfOJwp-77" value="&lt;font style=&quot;font-size: 16px;&quot;&gt;&lt;b&gt;h&lt;sub&gt;2&lt;/sub&gt;&lt;/b&gt;&lt;/font&gt;" style="rounded=0;whiteSpace=wrap;html=1;strokeWidth=2;fillColor=#fff2cc;strokeColor=#d6b656;" vertex="1" parent="1">
          <mxGeometry x="400" y="640" width="40" height="40" as="geometry" />
        </mxCell>
        <mxCell id="8TRVSNnAd9o4I1YfOJwp-78" style="edgeStyle=orthogonalEdgeStyle;rounded=0;orthogonalLoop=1;jettySize=auto;html=1;strokeWidth=2;fillColor=#fff2cc;strokeColor=#d6b656;entryX=1;entryY=0.5;entryDx=0;entryDy=0;" edge="1" parent="1" target="8TRVSNnAd9o4I1YfOJwp-91">
          <mxGeometry relative="1" as="geometry">
            <mxPoint x="420" y="840" as="sourcePoint" />
            <mxPoint x="430" y="680" as="targetPoint" />
            <Array as="points">
              <mxPoint x="440" y="840" />
              <mxPoint x="440" y="725" />
            </Array>
          </mxGeometry>
        </mxCell>
        <mxCell id="8TRVSNnAd9o4I1YfOJwp-79" style="edgeStyle=orthogonalEdgeStyle;rounded=0;orthogonalLoop=1;jettySize=auto;html=1;fillColor=#d5e8d4;strokeColor=#82b366;strokeWidth=2;endArrow=none;endFill=0;" edge="1" parent="1" source="8TRVSNnAd9o4I1YfOJwp-81">
          <mxGeometry relative="1" as="geometry">
            <mxPoint x="370" y="850" as="targetPoint" />
            <Array as="points">
              <mxPoint x="420" y="850" />
            </Array>
          </mxGeometry>
        </mxCell>
        <mxCell id="8TRVSNnAd9o4I1YfOJwp-80" style="rounded=1;orthogonalLoop=1;jettySize=auto;html=1;strokeWidth=2;fillColor=#d5e8d4;strokeColor=#82b366;entryX=0.5;entryY=1;entryDx=0;entryDy=0;exitX=0.079;exitY=0.1;exitDx=0;exitDy=0;exitPerimeter=0;curved=0;" edge="1" parent="1" source="8TRVSNnAd9o4I1YfOJwp-96" target="8TRVSNnAd9o4I1YfOJwp-91">
          <mxGeometry relative="1" as="geometry">
            <mxPoint x="410" y="680" as="targetPoint" />
          </mxGeometry>
        </mxCell>
        <mxCell id="8TRVSNnAd9o4I1YfOJwp-81" value="&lt;font style=&quot;font-size: 16px;&quot;&gt;&lt;b&gt;x&lt;sub&gt;2&lt;/sub&gt;&lt;/b&gt;&lt;/font&gt;" style="rounded=0;whiteSpace=wrap;html=1;strokeWidth=2;fillColor=#d5e8d4;strokeColor=#82b366;" vertex="1" parent="1">
          <mxGeometry x="400" y="880" width="40" height="40" as="geometry" />
        </mxCell>
        <mxCell id="8TRVSNnAd9o4I1YfOJwp-82" style="edgeStyle=orthogonalEdgeStyle;rounded=0;orthogonalLoop=1;jettySize=auto;html=1;entryX=0.25;entryY=1;entryDx=0;entryDy=0;strokeWidth=2;fillColor=#fff2cc;strokeColor=#d6b656;" edge="1" parent="1" target="8TRVSNnAd9o4I1YfOJwp-88">
          <mxGeometry relative="1" as="geometry">
            <Array as="points">
              <mxPoint x="320" y="660" />
              <mxPoint x="320" y="840" />
              <mxPoint x="460" y="840" />
            </Array>
            <mxPoint x="240" y="660" as="sourcePoint" />
          </mxGeometry>
        </mxCell>
        <mxCell id="8TRVSNnAd9o4I1YfOJwp-83" style="edgeStyle=orthogonalEdgeStyle;rounded=0;orthogonalLoop=1;jettySize=auto;html=1;entryX=0.75;entryY=1;entryDx=0;entryDy=0;strokeWidth=2;fillColor=#fff2cc;strokeColor=#d6b656;" edge="1" parent="1" target="8TRVSNnAd9o4I1YfOJwp-86">
          <mxGeometry relative="1" as="geometry">
            <mxPoint x="240" y="660" as="sourcePoint" />
            <Array as="points">
              <mxPoint x="320" y="660" />
              <mxPoint x="320" y="840" />
              <mxPoint x="390" y="840" />
            </Array>
          </mxGeometry>
        </mxCell>
        <mxCell id="8TRVSNnAd9o4I1YfOJwp-84" value="" style="edgeStyle=orthogonalEdgeStyle;rounded=0;orthogonalLoop=1;jettySize=auto;html=1;entryX=0.75;entryY=1;entryDx=0;entryDy=0;strokeWidth=2;fillColor=#d5e8d4;strokeColor=#82b366;" edge="1" parent="1" source="8TRVSNnAd9o4I1YfOJwp-81" target="8TRVSNnAd9o4I1YfOJwp-88">
          <mxGeometry relative="1" as="geometry">
            <mxPoint x="420" y="800" as="sourcePoint" />
            <mxPoint x="420" y="750" as="targetPoint" />
            <Array as="points">
              <mxPoint x="420" y="850" />
              <mxPoint x="480" y="850" />
              <mxPoint x="480" y="800" />
            </Array>
          </mxGeometry>
        </mxCell>
        <mxCell id="8TRVSNnAd9o4I1YfOJwp-85" style="edgeStyle=orthogonalEdgeStyle;rounded=0;orthogonalLoop=1;jettySize=auto;html=1;entryX=0;entryY=0.5;entryDx=0;entryDy=0;strokeWidth=2;fillColor=#e1d5e7;strokeColor=#9673a6;exitX=0.5;exitY=0;exitDx=0;exitDy=0;entryPerimeter=0;" edge="1" parent="1" source="8TRVSNnAd9o4I1YfOJwp-86" target="8TRVSNnAd9o4I1YfOJwp-95">
          <mxGeometry relative="1" as="geometry">
            <mxPoint x="415.000000000004" y="700" as="targetPoint" />
          </mxGeometry>
        </mxCell>
        <mxCell id="8TRVSNnAd9o4I1YfOJwp-86" value="&lt;font style=&quot;font-size: 16px;&quot;&gt;&lt;b&gt;z&lt;sub&gt;2&lt;/sub&gt;&lt;/b&gt;&lt;/font&gt;" style="rounded=0;whiteSpace=wrap;html=1;strokeWidth=2;fillColor=#e1d5e7;strokeColor=#9673a6;" vertex="1" parent="1">
          <mxGeometry x="360" y="760" width="40" height="40" as="geometry" />
        </mxCell>
        <mxCell id="8TRVSNnAd9o4I1YfOJwp-87" style="edgeStyle=orthogonalEdgeStyle;rounded=0;orthogonalLoop=1;jettySize=auto;html=1;strokeWidth=2;fillColor=#f8cecc;strokeColor=#b85450;exitX=0.5;exitY=0;exitDx=0;exitDy=0;entryX=1;entryY=0.5;entryDx=0;entryDy=0;" edge="1" parent="1" source="8TRVSNnAd9o4I1YfOJwp-88">
          <mxGeometry relative="1" as="geometry">
            <mxPoint x="445" y="745" as="targetPoint" />
            <Array as="points">
              <mxPoint x="470" y="745" />
            </Array>
          </mxGeometry>
        </mxCell>
        <mxCell id="8TRVSNnAd9o4I1YfOJwp-88" value="&lt;font style=&quot;font-size: 16px;&quot;&gt;&lt;b&gt;r&lt;sub&gt;2&lt;/sub&gt;&lt;/b&gt;&lt;/font&gt;" style="rounded=0;whiteSpace=wrap;html=1;strokeWidth=2;fillColor=#f8cecc;strokeColor=#b85450;" vertex="1" parent="1">
          <mxGeometry x="450" y="760" width="40" height="40" as="geometry" />
        </mxCell>
        <mxCell id="8TRVSNnAd9o4I1YfOJwp-89" value="&lt;font style=&quot;color: light-dark(rgb(26, 95, 180), rgb(237, 237, 237)); font-size: 9px;&quot;&gt;GRU Cell&lt;/font&gt;" style="text;html=1;align=center;verticalAlign=middle;whiteSpace=wrap;rounded=0;" vertex="1" parent="1">
          <mxGeometry x="395" y="600" width="50" height="20" as="geometry" />
        </mxCell>
        <mxCell id="8TRVSNnAd9o4I1YfOJwp-90" style="rounded=0;orthogonalLoop=1;jettySize=auto;html=1;entryX=1;entryY=0.5;entryDx=0;entryDy=0;strokeWidth=2;fillColor=#f5f5f5;strokeColor=#666666;" edge="1" parent="1" source="8TRVSNnAd9o4I1YfOJwp-91">
          <mxGeometry relative="1" as="geometry">
            <mxPoint x="420" y="705" as="targetPoint" />
          </mxGeometry>
        </mxCell>
        <mxCell id="8TRVSNnAd9o4I1YfOJwp-91" value="" style="ellipse;whiteSpace=wrap;html=1;aspect=fixed;strokeWidth=2;fillColor=#f5f5f5;fontColor=#333333;strokeColor=#666666;" vertex="1" parent="1">
          <mxGeometry x="415" y="720" width="10" height="10" as="geometry" />
        </mxCell>
        <mxCell id="8TRVSNnAd9o4I1YfOJwp-92" style="rounded=0;orthogonalLoop=1;jettySize=auto;html=1;entryX=0.5;entryY=1;entryDx=0;entryDy=0;strokeWidth=2;fillColor=#f5f5f5;strokeColor=#666666;" edge="1" parent="1" target="8TRVSNnAd9o4I1YfOJwp-77">
          <mxGeometry relative="1" as="geometry">
            <mxPoint x="420" y="695" as="sourcePoint" />
          </mxGeometry>
        </mxCell>
        <mxCell id="8TRVSNnAd9o4I1YfOJwp-93" style="edgeStyle=orthogonalEdgeStyle;rounded=0;orthogonalLoop=1;jettySize=auto;html=1;entryX=1;entryY=0.5;entryDx=0;entryDy=0;entryPerimeter=0;strokeWidth=2;fillColor=#fff2cc;strokeColor=#d6b656;" edge="1" parent="1" source="8TRVSNnAd9o4I1YfOJwp-94" target="8TRVSNnAd9o4I1YfOJwp-95">
          <mxGeometry relative="1" as="geometry">
            <Array as="points">
              <mxPoint x="440" y="700" />
            </Array>
          </mxGeometry>
        </mxCell>
        <mxCell id="8TRVSNnAd9o4I1YfOJwp-94" value="" style="verticalLabelPosition=bottom;verticalAlign=top;html=1;shape=mxgraph.flowchart.or;strokeWidth=2;fillColor=#fff2cc;strokeColor=#d6b656;" vertex="1" parent="1">
          <mxGeometry x="435" y="740" width="10" height="10" as="geometry" />
        </mxCell>
        <mxCell id="8TRVSNnAd9o4I1YfOJwp-95" value="" style="verticalLabelPosition=bottom;verticalAlign=top;html=1;shape=mxgraph.flowchart.or;strokeWidth=2;fillColor=#f5f5f5;fontColor=#333333;strokeColor=#666666;" vertex="1" parent="1">
          <mxGeometry x="415" y="695" width="10" height="10" as="geometry" />
        </mxCell>
        <mxCell id="8TRVSNnAd9o4I1YfOJwp-96" value="" style="shape=requiredInterface;html=1;verticalLabelPosition=bottom;sketch=0;fillColor=#d5e8d4;strokeColor=#82b366;strokeWidth=2;" vertex="1" parent="1">
          <mxGeometry x="420" y="835" width="5" height="10" as="geometry" />
        </mxCell>
        <mxCell id="8TRVSNnAd9o4I1YfOJwp-97" style="edgeStyle=orthogonalEdgeStyle;rounded=1;orthogonalLoop=1;jettySize=auto;html=1;entryX=0.034;entryY=0.895;entryDx=0;entryDy=0;entryPerimeter=0;endArrow=none;endFill=0;fillColor=#d5e8d4;strokeColor=#82b366;strokeWidth=2;curved=0;" edge="1" parent="1" source="8TRVSNnAd9o4I1YfOJwp-81" target="8TRVSNnAd9o4I1YfOJwp-96">
          <mxGeometry relative="1" as="geometry" />
        </mxCell>
        <mxCell id="8TRVSNnAd9o4I1YfOJwp-98" value="&lt;b&gt;&lt;font style=&quot;font-size: 6px;&quot;&gt;f&lt;/font&gt;&lt;/b&gt;" style="text;html=1;align=center;verticalAlign=middle;whiteSpace=wrap;rounded=0;" vertex="1" parent="1">
          <mxGeometry x="410" y="717" width="20" height="10" as="geometry" />
        </mxCell>
        <mxCell id="8TRVSNnAd9o4I1YfOJwp-99" value="" style="shape=requiredInterface;html=1;verticalLabelPosition=bottom;sketch=0;fillColor=#d5e8d4;strokeColor=#82b366;strokeWidth=2;" vertex="1" parent="1">
          <mxGeometry x="370" y="835" width="5" height="10" as="geometry" />
        </mxCell>
        <mxCell id="8TRVSNnAd9o4I1YfOJwp-100" style="rounded=0;orthogonalLoop=1;jettySize=auto;html=1;entryX=0.25;entryY=1;entryDx=0;entryDy=0;strokeWidth=2;fillColor=#d5e8d4;strokeColor=#82b366;exitX=0;exitY=0.097;exitDx=0;exitDy=0;exitPerimeter=0;" edge="1" parent="1" source="8TRVSNnAd9o4I1YfOJwp-99" target="8TRVSNnAd9o4I1YfOJwp-86">
          <mxGeometry relative="1" as="geometry">
            <mxPoint x="370.32" y="835.84" as="sourcePoint" />
            <mxPoint x="370.00000000000006" y="800" as="targetPoint" />
          </mxGeometry>
        </mxCell>
        <mxCell id="8TRVSNnAd9o4I1YfOJwp-101" value="" style="endArrow=none;html=1;rounded=0;fillColor=#d5e8d4;strokeColor=#82b366;strokeWidth=2;exitX=0.005;exitY=0.902;exitDx=0;exitDy=0;exitPerimeter=0;" edge="1" parent="1" source="8TRVSNnAd9o4I1YfOJwp-99">
          <mxGeometry width="50" height="50" relative="1" as="geometry">
            <mxPoint x="370" y="850" as="sourcePoint" />
            <mxPoint x="370" y="851" as="targetPoint" />
          </mxGeometry>
        </mxCell>
        <mxCell id="8TRVSNnAd9o4I1YfOJwp-102" value="" style="endArrow=none;html=1;rounded=0;fillColor=#d5e8d4;strokeColor=#82b366;strokeWidth=2;" edge="1" parent="1">
          <mxGeometry width="50" height="50" relative="1" as="geometry">
            <mxPoint x="370" y="850" as="sourcePoint" />
            <mxPoint x="370" y="851" as="targetPoint" />
          </mxGeometry>
        </mxCell>
        <mxCell id="8TRVSNnAd9o4I1YfOJwp-103" value="" style="rounded=1;whiteSpace=wrap;html=1;strokeWidth=2;dashed=1;dashPattern=1 1;fillColor=#dae8fc;strokeColor=#6c8ebf;" vertex="1" parent="1">
          <mxGeometry x="550" y="620" width="150" height="200" as="geometry" />
        </mxCell>
        <mxCell id="8TRVSNnAd9o4I1YfOJwp-104" value="&lt;font style=&quot;font-size: 16px;&quot;&gt;&lt;b&gt;h&lt;sub&gt;3&lt;/sub&gt;&lt;/b&gt;&lt;/font&gt;" style="rounded=0;whiteSpace=wrap;html=1;strokeWidth=2;fillColor=#fff2cc;strokeColor=#d6b656;" vertex="1" parent="1">
          <mxGeometry x="600" y="640" width="40" height="40" as="geometry" />
        </mxCell>
        <mxCell id="8TRVSNnAd9o4I1YfOJwp-105" style="edgeStyle=orthogonalEdgeStyle;rounded=0;orthogonalLoop=1;jettySize=auto;html=1;strokeWidth=2;fillColor=#fff2cc;strokeColor=#d6b656;entryX=1;entryY=0.5;entryDx=0;entryDy=0;" edge="1" parent="1" target="8TRVSNnAd9o4I1YfOJwp-117">
          <mxGeometry relative="1" as="geometry">
            <mxPoint x="590" y="840" as="sourcePoint" />
            <mxPoint x="630" y="680" as="targetPoint" />
            <Array as="points">
              <mxPoint x="640" y="840" />
              <mxPoint x="640" y="725" />
            </Array>
          </mxGeometry>
        </mxCell>
        <mxCell id="8TRVSNnAd9o4I1YfOJwp-106" style="edgeStyle=orthogonalEdgeStyle;rounded=0;orthogonalLoop=1;jettySize=auto;html=1;fillColor=#d5e8d4;strokeColor=#82b366;strokeWidth=2;endArrow=none;endFill=0;" edge="1" parent="1" source="8TRVSNnAd9o4I1YfOJwp-108">
          <mxGeometry relative="1" as="geometry">
            <mxPoint x="570" y="850" as="targetPoint" />
            <Array as="points">
              <mxPoint x="620" y="850" />
            </Array>
          </mxGeometry>
        </mxCell>
        <mxCell id="8TRVSNnAd9o4I1YfOJwp-107" style="rounded=1;orthogonalLoop=1;jettySize=auto;html=1;strokeWidth=2;fillColor=#d5e8d4;strokeColor=#82b366;entryX=0.5;entryY=1;entryDx=0;entryDy=0;exitX=0.079;exitY=0.1;exitDx=0;exitDy=0;exitPerimeter=0;curved=0;" edge="1" parent="1" source="8TRVSNnAd9o4I1YfOJwp-122" target="8TRVSNnAd9o4I1YfOJwp-117">
          <mxGeometry relative="1" as="geometry">
            <mxPoint x="610" y="680" as="targetPoint" />
          </mxGeometry>
        </mxCell>
        <mxCell id="8TRVSNnAd9o4I1YfOJwp-108" value="&lt;font style=&quot;font-size: 16px;&quot;&gt;&lt;b&gt;x&lt;sub&gt;3&lt;/sub&gt;&lt;/b&gt;&lt;/font&gt;" style="rounded=0;whiteSpace=wrap;html=1;strokeWidth=2;fillColor=#d5e8d4;strokeColor=#82b366;" vertex="1" parent="1">
          <mxGeometry x="600" y="880" width="40" height="40" as="geometry" />
        </mxCell>
        <mxCell id="8TRVSNnAd9o4I1YfOJwp-109" style="edgeStyle=orthogonalEdgeStyle;rounded=0;orthogonalLoop=1;jettySize=auto;html=1;entryX=0.75;entryY=1;entryDx=0;entryDy=0;strokeWidth=2;fillColor=#fff2cc;strokeColor=#d6b656;" edge="1" parent="1" target="8TRVSNnAd9o4I1YfOJwp-112">
          <mxGeometry relative="1" as="geometry">
            <mxPoint x="440" y="660" as="sourcePoint" />
            <Array as="points">
              <mxPoint x="520" y="660" />
              <mxPoint x="520" y="840" />
              <mxPoint x="590" y="840" />
            </Array>
          </mxGeometry>
        </mxCell>
        <mxCell id="8TRVSNnAd9o4I1YfOJwp-110" value="" style="edgeStyle=orthogonalEdgeStyle;rounded=0;orthogonalLoop=1;jettySize=auto;html=1;entryX=0.75;entryY=1;entryDx=0;entryDy=0;strokeWidth=2;fillColor=#d5e8d4;strokeColor=#82b366;" edge="1" parent="1" source="8TRVSNnAd9o4I1YfOJwp-108" target="8TRVSNnAd9o4I1YfOJwp-114">
          <mxGeometry relative="1" as="geometry">
            <mxPoint x="620" y="800" as="sourcePoint" />
            <mxPoint x="620" y="750" as="targetPoint" />
            <Array as="points">
              <mxPoint x="620" y="850" />
              <mxPoint x="680" y="850" />
              <mxPoint x="680" y="800" />
            </Array>
          </mxGeometry>
        </mxCell>
        <mxCell id="8TRVSNnAd9o4I1YfOJwp-111" style="edgeStyle=orthogonalEdgeStyle;rounded=0;orthogonalLoop=1;jettySize=auto;html=1;entryX=0;entryY=0.5;entryDx=0;entryDy=0;strokeWidth=2;fillColor=#e1d5e7;strokeColor=#9673a6;exitX=0.5;exitY=0;exitDx=0;exitDy=0;entryPerimeter=0;" edge="1" parent="1" source="8TRVSNnAd9o4I1YfOJwp-112" target="8TRVSNnAd9o4I1YfOJwp-121">
          <mxGeometry relative="1" as="geometry">
            <mxPoint x="615.000000000004" y="700" as="targetPoint" />
          </mxGeometry>
        </mxCell>
        <mxCell id="8TRVSNnAd9o4I1YfOJwp-112" value="&lt;font style=&quot;font-size: 16px;&quot;&gt;&lt;b&gt;z&lt;sub&gt;3&lt;/sub&gt;&lt;/b&gt;&lt;/font&gt;" style="rounded=0;whiteSpace=wrap;html=1;strokeWidth=2;fillColor=#e1d5e7;strokeColor=#9673a6;" vertex="1" parent="1">
          <mxGeometry x="560" y="760" width="40" height="40" as="geometry" />
        </mxCell>
        <mxCell id="8TRVSNnAd9o4I1YfOJwp-113" style="edgeStyle=orthogonalEdgeStyle;rounded=0;orthogonalLoop=1;jettySize=auto;html=1;strokeWidth=2;fillColor=#f8cecc;strokeColor=#b85450;exitX=0.5;exitY=0;exitDx=0;exitDy=0;entryX=1;entryY=0.5;entryDx=0;entryDy=0;" edge="1" parent="1" source="8TRVSNnAd9o4I1YfOJwp-114">
          <mxGeometry relative="1" as="geometry">
            <mxPoint x="645" y="745" as="targetPoint" />
            <Array as="points">
              <mxPoint x="670" y="745" />
            </Array>
          </mxGeometry>
        </mxCell>
        <mxCell id="8TRVSNnAd9o4I1YfOJwp-114" value="&lt;font style=&quot;font-size: 16px;&quot;&gt;&lt;b&gt;r&lt;sub&gt;3&lt;/sub&gt;&lt;/b&gt;&lt;/font&gt;" style="rounded=0;whiteSpace=wrap;html=1;strokeWidth=2;fillColor=#f8cecc;strokeColor=#b85450;" vertex="1" parent="1">
          <mxGeometry x="650" y="760" width="40" height="40" as="geometry" />
        </mxCell>
        <mxCell id="8TRVSNnAd9o4I1YfOJwp-115" value="&lt;font style=&quot;color: light-dark(rgb(26, 95, 180), rgb(237, 237, 237)); font-size: 9px;&quot;&gt;GRU Cell&lt;/font&gt;" style="text;html=1;align=center;verticalAlign=middle;whiteSpace=wrap;rounded=0;" vertex="1" parent="1">
          <mxGeometry x="595" y="600" width="50" height="20" as="geometry" />
        </mxCell>
        <mxCell id="8TRVSNnAd9o4I1YfOJwp-116" style="rounded=0;orthogonalLoop=1;jettySize=auto;html=1;entryX=1;entryY=0.5;entryDx=0;entryDy=0;strokeWidth=2;fillColor=#f5f5f5;strokeColor=#666666;" edge="1" parent="1" source="8TRVSNnAd9o4I1YfOJwp-117">
          <mxGeometry relative="1" as="geometry">
            <mxPoint x="620" y="705" as="targetPoint" />
          </mxGeometry>
        </mxCell>
        <mxCell id="8TRVSNnAd9o4I1YfOJwp-117" value="" style="ellipse;whiteSpace=wrap;html=1;aspect=fixed;strokeWidth=2;fillColor=#f5f5f5;fontColor=#333333;strokeColor=#666666;" vertex="1" parent="1">
          <mxGeometry x="615" y="720" width="10" height="10" as="geometry" />
        </mxCell>
        <mxCell id="8TRVSNnAd9o4I1YfOJwp-118" style="rounded=0;orthogonalLoop=1;jettySize=auto;html=1;entryX=0.5;entryY=1;entryDx=0;entryDy=0;strokeWidth=2;fillColor=#f5f5f5;strokeColor=#666666;" edge="1" parent="1" target="8TRVSNnAd9o4I1YfOJwp-104">
          <mxGeometry relative="1" as="geometry">
            <mxPoint x="620" y="695" as="sourcePoint" />
          </mxGeometry>
        </mxCell>
        <mxCell id="8TRVSNnAd9o4I1YfOJwp-119" style="edgeStyle=orthogonalEdgeStyle;rounded=0;orthogonalLoop=1;jettySize=auto;html=1;entryX=1;entryY=0.5;entryDx=0;entryDy=0;entryPerimeter=0;strokeWidth=2;fillColor=#fff2cc;strokeColor=#d6b656;" edge="1" parent="1" source="8TRVSNnAd9o4I1YfOJwp-120" target="8TRVSNnAd9o4I1YfOJwp-121">
          <mxGeometry relative="1" as="geometry">
            <Array as="points">
              <mxPoint x="640" y="700" />
            </Array>
          </mxGeometry>
        </mxCell>
        <mxCell id="8TRVSNnAd9o4I1YfOJwp-120" value="" style="verticalLabelPosition=bottom;verticalAlign=top;html=1;shape=mxgraph.flowchart.or;strokeWidth=2;fillColor=#fff2cc;strokeColor=#d6b656;" vertex="1" parent="1">
          <mxGeometry x="635" y="740" width="10" height="10" as="geometry" />
        </mxCell>
        <mxCell id="8TRVSNnAd9o4I1YfOJwp-121" value="" style="verticalLabelPosition=bottom;verticalAlign=top;html=1;shape=mxgraph.flowchart.or;strokeWidth=2;fillColor=#f5f5f5;fontColor=#333333;strokeColor=#666666;" vertex="1" parent="1">
          <mxGeometry x="615" y="695" width="10" height="10" as="geometry" />
        </mxCell>
        <mxCell id="8TRVSNnAd9o4I1YfOJwp-123" style="edgeStyle=orthogonalEdgeStyle;rounded=1;orthogonalLoop=1;jettySize=auto;html=1;entryX=0.034;entryY=0.895;entryDx=0;entryDy=0;entryPerimeter=0;endArrow=none;endFill=0;fillColor=#d5e8d4;strokeColor=#82b366;strokeWidth=2;curved=0;" edge="1" parent="1" source="8TRVSNnAd9o4I1YfOJwp-108" target="8TRVSNnAd9o4I1YfOJwp-122">
          <mxGeometry relative="1" as="geometry" />
        </mxCell>
        <mxCell id="8TRVSNnAd9o4I1YfOJwp-124" value="&lt;b&gt;&lt;font style=&quot;font-size: 6px;&quot;&gt;f&lt;/font&gt;&lt;/b&gt;" style="text;html=1;align=center;verticalAlign=middle;whiteSpace=wrap;rounded=0;" vertex="1" parent="1">
          <mxGeometry x="610" y="717" width="20" height="10" as="geometry" />
        </mxCell>
        <mxCell id="8TRVSNnAd9o4I1YfOJwp-126" style="rounded=0;orthogonalLoop=1;jettySize=auto;html=1;entryX=0.25;entryY=1;entryDx=0;entryDy=0;strokeWidth=2;fillColor=#d5e8d4;strokeColor=#82b366;exitX=0;exitY=0.097;exitDx=0;exitDy=0;exitPerimeter=0;" edge="1" parent="1" source="8TRVSNnAd9o4I1YfOJwp-125" target="8TRVSNnAd9o4I1YfOJwp-112">
          <mxGeometry relative="1" as="geometry">
            <mxPoint x="570.3199999999999" y="835.84" as="sourcePoint" />
            <mxPoint x="570" y="800" as="targetPoint" />
          </mxGeometry>
        </mxCell>
        <mxCell id="8TRVSNnAd9o4I1YfOJwp-127" value="" style="endArrow=none;html=1;rounded=0;fillColor=#d5e8d4;strokeColor=#82b366;strokeWidth=2;exitX=0.005;exitY=0.902;exitDx=0;exitDy=0;exitPerimeter=0;" edge="1" parent="1" source="8TRVSNnAd9o4I1YfOJwp-125">
          <mxGeometry width="50" height="50" relative="1" as="geometry">
            <mxPoint x="570" y="850" as="sourcePoint" />
            <mxPoint x="570" y="851" as="targetPoint" />
          </mxGeometry>
        </mxCell>
        <mxCell id="8TRVSNnAd9o4I1YfOJwp-128" value="" style="endArrow=none;html=1;rounded=0;fillColor=#d5e8d4;strokeColor=#82b366;strokeWidth=2;" edge="1" parent="1">
          <mxGeometry width="50" height="50" relative="1" as="geometry">
            <mxPoint x="570" y="850" as="sourcePoint" />
            <mxPoint x="570" y="851" as="targetPoint" />
          </mxGeometry>
        </mxCell>
        <mxCell id="8TRVSNnAd9o4I1YfOJwp-129" value="" style="rounded=1;whiteSpace=wrap;html=1;strokeWidth=2;dashed=1;dashPattern=1 1;fillColor=#dae8fc;strokeColor=#6c8ebf;" vertex="1" parent="1">
          <mxGeometry x="750" y="620" width="150" height="200" as="geometry" />
        </mxCell>
        <mxCell id="8TRVSNnAd9o4I1YfOJwp-130" value="&lt;font style=&quot;font-size: 16px;&quot;&gt;&lt;b&gt;h&lt;sub&gt;4&lt;/sub&gt;&lt;/b&gt;&lt;/font&gt;" style="rounded=0;whiteSpace=wrap;html=1;strokeWidth=2;fillColor=#fff2cc;strokeColor=#d6b656;" vertex="1" parent="1">
          <mxGeometry x="800" y="640" width="40" height="40" as="geometry" />
        </mxCell>
        <mxCell id="8TRVSNnAd9o4I1YfOJwp-131" style="edgeStyle=orthogonalEdgeStyle;rounded=0;orthogonalLoop=1;jettySize=auto;html=1;strokeWidth=2;fillColor=#fff2cc;strokeColor=#d6b656;entryX=1;entryY=0.5;entryDx=0;entryDy=0;" edge="1" parent="1" target="8TRVSNnAd9o4I1YfOJwp-143">
          <mxGeometry relative="1" as="geometry">
            <mxPoint x="790" y="840" as="sourcePoint" />
            <mxPoint x="830" y="680" as="targetPoint" />
            <Array as="points">
              <mxPoint x="840" y="840" />
              <mxPoint x="840" y="725" />
            </Array>
          </mxGeometry>
        </mxCell>
        <mxCell id="8TRVSNnAd9o4I1YfOJwp-132" style="edgeStyle=orthogonalEdgeStyle;rounded=0;orthogonalLoop=1;jettySize=auto;html=1;fillColor=#d5e8d4;strokeColor=#82b366;strokeWidth=2;endArrow=none;endFill=0;" edge="1" parent="1" source="8TRVSNnAd9o4I1YfOJwp-134">
          <mxGeometry relative="1" as="geometry">
            <mxPoint x="770" y="850" as="targetPoint" />
            <Array as="points">
              <mxPoint x="820" y="850" />
            </Array>
          </mxGeometry>
        </mxCell>
        <mxCell id="8TRVSNnAd9o4I1YfOJwp-133" style="rounded=1;orthogonalLoop=1;jettySize=auto;html=1;strokeWidth=2;fillColor=#d5e8d4;strokeColor=#82b366;entryX=0.5;entryY=1;entryDx=0;entryDy=0;exitX=0.079;exitY=0.1;exitDx=0;exitDy=0;exitPerimeter=0;curved=0;" edge="1" parent="1" source="8TRVSNnAd9o4I1YfOJwp-148" target="8TRVSNnAd9o4I1YfOJwp-143">
          <mxGeometry relative="1" as="geometry">
            <mxPoint x="810" y="680" as="targetPoint" />
          </mxGeometry>
        </mxCell>
        <mxCell id="8TRVSNnAd9o4I1YfOJwp-134" value="&lt;font style=&quot;font-size: 16px;&quot;&gt;&lt;b&gt;x&lt;sub&gt;4&lt;/sub&gt;&lt;/b&gt;&lt;/font&gt;" style="rounded=0;whiteSpace=wrap;html=1;strokeWidth=2;fillColor=#d5e8d4;strokeColor=#82b366;" vertex="1" parent="1">
          <mxGeometry x="800" y="880" width="40" height="40" as="geometry" />
        </mxCell>
        <mxCell id="8TRVSNnAd9o4I1YfOJwp-135" style="edgeStyle=orthogonalEdgeStyle;rounded=0;orthogonalLoop=1;jettySize=auto;html=1;entryX=0.75;entryY=1;entryDx=0;entryDy=0;strokeWidth=2;fillColor=#fff2cc;strokeColor=#d6b656;" edge="1" parent="1" target="8TRVSNnAd9o4I1YfOJwp-138">
          <mxGeometry relative="1" as="geometry">
            <mxPoint x="640" y="660" as="sourcePoint" />
            <Array as="points">
              <mxPoint x="720" y="660" />
              <mxPoint x="720" y="840" />
              <mxPoint x="790" y="840" />
            </Array>
          </mxGeometry>
        </mxCell>
        <mxCell id="8TRVSNnAd9o4I1YfOJwp-136" value="" style="edgeStyle=orthogonalEdgeStyle;rounded=0;orthogonalLoop=1;jettySize=auto;html=1;entryX=0.75;entryY=1;entryDx=0;entryDy=0;strokeWidth=2;fillColor=#d5e8d4;strokeColor=#82b366;" edge="1" parent="1" source="8TRVSNnAd9o4I1YfOJwp-134" target="8TRVSNnAd9o4I1YfOJwp-140">
          <mxGeometry relative="1" as="geometry">
            <mxPoint x="820" y="800" as="sourcePoint" />
            <mxPoint x="820" y="750" as="targetPoint" />
            <Array as="points">
              <mxPoint x="820" y="850" />
              <mxPoint x="880" y="850" />
              <mxPoint x="880" y="800" />
            </Array>
          </mxGeometry>
        </mxCell>
        <mxCell id="8TRVSNnAd9o4I1YfOJwp-137" style="edgeStyle=orthogonalEdgeStyle;rounded=0;orthogonalLoop=1;jettySize=auto;html=1;entryX=0;entryY=0.5;entryDx=0;entryDy=0;strokeWidth=2;fillColor=#e1d5e7;strokeColor=#9673a6;exitX=0.5;exitY=0;exitDx=0;exitDy=0;entryPerimeter=0;" edge="1" parent="1" source="8TRVSNnAd9o4I1YfOJwp-138" target="8TRVSNnAd9o4I1YfOJwp-147">
          <mxGeometry relative="1" as="geometry">
            <mxPoint x="815.000000000004" y="700" as="targetPoint" />
          </mxGeometry>
        </mxCell>
        <mxCell id="8TRVSNnAd9o4I1YfOJwp-138" value="&lt;font style=&quot;font-size: 16px;&quot;&gt;&lt;b&gt;z&lt;sub&gt;4&lt;/sub&gt;&lt;/b&gt;&lt;/font&gt;" style="rounded=0;whiteSpace=wrap;html=1;strokeWidth=2;fillColor=#e1d5e7;strokeColor=#9673a6;" vertex="1" parent="1">
          <mxGeometry x="760" y="760" width="40" height="40" as="geometry" />
        </mxCell>
        <mxCell id="8TRVSNnAd9o4I1YfOJwp-139" style="edgeStyle=orthogonalEdgeStyle;rounded=0;orthogonalLoop=1;jettySize=auto;html=1;strokeWidth=2;fillColor=#f8cecc;strokeColor=#b85450;exitX=0.5;exitY=0;exitDx=0;exitDy=0;entryX=1;entryY=0.5;entryDx=0;entryDy=0;" edge="1" parent="1" source="8TRVSNnAd9o4I1YfOJwp-140">
          <mxGeometry relative="1" as="geometry">
            <mxPoint x="845" y="745" as="targetPoint" />
            <Array as="points">
              <mxPoint x="870" y="745" />
            </Array>
          </mxGeometry>
        </mxCell>
        <mxCell id="8TRVSNnAd9o4I1YfOJwp-140" value="&lt;font style=&quot;font-size: 16px;&quot;&gt;&lt;b&gt;r&lt;sub&gt;4&lt;/sub&gt;&lt;/b&gt;&lt;/font&gt;" style="rounded=0;whiteSpace=wrap;html=1;strokeWidth=2;fillColor=#f8cecc;strokeColor=#b85450;" vertex="1" parent="1">
          <mxGeometry x="850" y="760" width="40" height="40" as="geometry" />
        </mxCell>
        <mxCell id="8TRVSNnAd9o4I1YfOJwp-141" value="&lt;font style=&quot;color: light-dark(rgb(26, 95, 180), rgb(237, 237, 237)); font-size: 9px;&quot;&gt;GRU Cell&lt;/font&gt;" style="text;html=1;align=center;verticalAlign=middle;whiteSpace=wrap;rounded=0;" vertex="1" parent="1">
          <mxGeometry x="795" y="600" width="50" height="20" as="geometry" />
        </mxCell>
        <mxCell id="8TRVSNnAd9o4I1YfOJwp-142" style="rounded=0;orthogonalLoop=1;jettySize=auto;html=1;entryX=1;entryY=0.5;entryDx=0;entryDy=0;strokeWidth=2;fillColor=#f5f5f5;strokeColor=#666666;" edge="1" parent="1" source="8TRVSNnAd9o4I1YfOJwp-143">
          <mxGeometry relative="1" as="geometry">
            <mxPoint x="820" y="705" as="targetPoint" />
          </mxGeometry>
        </mxCell>
        <mxCell id="8TRVSNnAd9o4I1YfOJwp-143" value="" style="ellipse;whiteSpace=wrap;html=1;aspect=fixed;strokeWidth=2;fillColor=#f5f5f5;fontColor=#333333;strokeColor=#666666;" vertex="1" parent="1">
          <mxGeometry x="815" y="720" width="10" height="10" as="geometry" />
        </mxCell>
        <mxCell id="8TRVSNnAd9o4I1YfOJwp-144" style="rounded=0;orthogonalLoop=1;jettySize=auto;html=1;entryX=0.5;entryY=1;entryDx=0;entryDy=0;strokeWidth=2;fillColor=#f5f5f5;strokeColor=#666666;" edge="1" parent="1" target="8TRVSNnAd9o4I1YfOJwp-130">
          <mxGeometry relative="1" as="geometry">
            <mxPoint x="820" y="695" as="sourcePoint" />
          </mxGeometry>
        </mxCell>
        <mxCell id="8TRVSNnAd9o4I1YfOJwp-145" style="edgeStyle=orthogonalEdgeStyle;rounded=0;orthogonalLoop=1;jettySize=auto;html=1;entryX=1;entryY=0.5;entryDx=0;entryDy=0;entryPerimeter=0;strokeWidth=2;fillColor=#fff2cc;strokeColor=#d6b656;" edge="1" parent="1" source="8TRVSNnAd9o4I1YfOJwp-146" target="8TRVSNnAd9o4I1YfOJwp-147">
          <mxGeometry relative="1" as="geometry">
            <Array as="points">
              <mxPoint x="840" y="700" />
            </Array>
          </mxGeometry>
        </mxCell>
        <mxCell id="8TRVSNnAd9o4I1YfOJwp-146" value="" style="verticalLabelPosition=bottom;verticalAlign=top;html=1;shape=mxgraph.flowchart.or;strokeWidth=2;fillColor=#fff2cc;strokeColor=#d6b656;" vertex="1" parent="1">
          <mxGeometry x="835" y="740" width="10" height="10" as="geometry" />
        </mxCell>
        <mxCell id="8TRVSNnAd9o4I1YfOJwp-147" value="" style="verticalLabelPosition=bottom;verticalAlign=top;html=1;shape=mxgraph.flowchart.or;strokeWidth=2;fillColor=#f5f5f5;fontColor=#333333;strokeColor=#666666;" vertex="1" parent="1">
          <mxGeometry x="815" y="695" width="10" height="10" as="geometry" />
        </mxCell>
        <mxCell id="8TRVSNnAd9o4I1YfOJwp-149" style="edgeStyle=orthogonalEdgeStyle;rounded=1;orthogonalLoop=1;jettySize=auto;html=1;entryX=0.034;entryY=0.895;entryDx=0;entryDy=0;entryPerimeter=0;endArrow=none;endFill=0;fillColor=#d5e8d4;strokeColor=#82b366;strokeWidth=2;curved=0;" edge="1" parent="1" source="8TRVSNnAd9o4I1YfOJwp-134" target="8TRVSNnAd9o4I1YfOJwp-148">
          <mxGeometry relative="1" as="geometry" />
        </mxCell>
        <mxCell id="8TRVSNnAd9o4I1YfOJwp-150" value="&lt;b&gt;&lt;font style=&quot;font-size: 6px;&quot;&gt;f&lt;/font&gt;&lt;/b&gt;" style="text;html=1;align=center;verticalAlign=middle;whiteSpace=wrap;rounded=0;" vertex="1" parent="1">
          <mxGeometry x="810" y="717" width="20" height="10" as="geometry" />
        </mxCell>
        <mxCell id="8TRVSNnAd9o4I1YfOJwp-152" style="rounded=0;orthogonalLoop=1;jettySize=auto;html=1;entryX=0.25;entryY=1;entryDx=0;entryDy=0;strokeWidth=2;fillColor=#d5e8d4;strokeColor=#82b366;exitX=0;exitY=0.097;exitDx=0;exitDy=0;exitPerimeter=0;" edge="1" parent="1" source="8TRVSNnAd9o4I1YfOJwp-151" target="8TRVSNnAd9o4I1YfOJwp-138">
          <mxGeometry relative="1" as="geometry">
            <mxPoint x="770.3199999999999" y="835.84" as="sourcePoint" />
            <mxPoint x="770" y="800" as="targetPoint" />
          </mxGeometry>
        </mxCell>
        <mxCell id="8TRVSNnAd9o4I1YfOJwp-153" value="" style="endArrow=none;html=1;rounded=0;fillColor=#d5e8d4;strokeColor=#82b366;strokeWidth=2;exitX=0.005;exitY=0.902;exitDx=0;exitDy=0;exitPerimeter=0;" edge="1" parent="1" source="8TRVSNnAd9o4I1YfOJwp-151">
          <mxGeometry width="50" height="50" relative="1" as="geometry">
            <mxPoint x="770" y="850" as="sourcePoint" />
            <mxPoint x="770" y="851" as="targetPoint" />
          </mxGeometry>
        </mxCell>
        <mxCell id="8TRVSNnAd9o4I1YfOJwp-154" value="" style="endArrow=none;html=1;rounded=0;fillColor=#d5e8d4;strokeColor=#82b366;strokeWidth=2;" edge="1" parent="1">
          <mxGeometry width="50" height="50" relative="1" as="geometry">
            <mxPoint x="770" y="850" as="sourcePoint" />
            <mxPoint x="770" y="851" as="targetPoint" />
          </mxGeometry>
        </mxCell>
        <mxCell id="8TRVSNnAd9o4I1YfOJwp-156" style="edgeStyle=orthogonalEdgeStyle;rounded=0;orthogonalLoop=1;jettySize=auto;html=1;entryX=0.25;entryY=1;entryDx=0;entryDy=0;strokeWidth=2;fillColor=#fff2cc;strokeColor=#d6b656;" edge="1" parent="1">
          <mxGeometry relative="1" as="geometry">
            <Array as="points">
              <mxPoint x="520" y="660" />
              <mxPoint x="520" y="840" />
              <mxPoint x="660" y="840" />
            </Array>
            <mxPoint x="440" y="660" as="sourcePoint" />
            <mxPoint x="660" y="800" as="targetPoint" />
          </mxGeometry>
        </mxCell>
        <mxCell id="8TRVSNnAd9o4I1YfOJwp-122" value="" style="shape=requiredInterface;html=1;verticalLabelPosition=bottom;sketch=0;fillColor=#d5e8d4;strokeColor=#82b366;strokeWidth=2;" vertex="1" parent="1">
          <mxGeometry x="620" y="835" width="5" height="10" as="geometry" />
        </mxCell>
        <mxCell id="8TRVSNnAd9o4I1YfOJwp-125" value="" style="shape=requiredInterface;html=1;verticalLabelPosition=bottom;sketch=0;fillColor=#d5e8d4;strokeColor=#82b366;strokeWidth=2;" vertex="1" parent="1">
          <mxGeometry x="570" y="835" width="5" height="10" as="geometry" />
        </mxCell>
        <mxCell id="8TRVSNnAd9o4I1YfOJwp-157" style="edgeStyle=orthogonalEdgeStyle;rounded=0;orthogonalLoop=1;jettySize=auto;html=1;entryX=0.25;entryY=1;entryDx=0;entryDy=0;strokeWidth=2;fillColor=#fff2cc;strokeColor=#d6b656;" edge="1" parent="1">
          <mxGeometry relative="1" as="geometry">
            <Array as="points">
              <mxPoint x="720" y="660" />
              <mxPoint x="720" y="840" />
              <mxPoint x="860" y="840" />
            </Array>
            <mxPoint x="640" y="660" as="sourcePoint" />
            <mxPoint x="860" y="800" as="targetPoint" />
          </mxGeometry>
        </mxCell>
        <mxCell id="8TRVSNnAd9o4I1YfOJwp-148" value="" style="shape=requiredInterface;html=1;verticalLabelPosition=bottom;sketch=0;fillColor=#d5e8d4;strokeColor=#82b366;strokeWidth=2;" vertex="1" parent="1">
          <mxGeometry x="820" y="835" width="5" height="10" as="geometry" />
        </mxCell>
        <mxCell id="8TRVSNnAd9o4I1YfOJwp-151" value="" style="shape=requiredInterface;html=1;verticalLabelPosition=bottom;sketch=0;fillColor=#d5e8d4;strokeColor=#82b366;strokeWidth=2;" vertex="1" parent="1">
          <mxGeometry x="770" y="835" width="5" height="10" as="geometry" />
        </mxCell>
      </root>
    </mxGraphModel>
  </diagram>
</mxfile>
